<?xml version="1.0" standalone="no"?>
<!DOCTYPE svg PUBLIC "-//W3C//DTD SVG 20010904//EN"
 "http://www.w3.org/TR/2001/REC-SVG-20010904/DTD/svg10.dtd">
<svg version="1.0" xmlns="http://www.w3.org/2000/svg"
 width="100.000000pt" height="100.000000pt" viewBox="0 0 100.000000 100.000000"
 preserveAspectRatio="xMidYMid meet">
<metadata>
Created by potrace 1.15, written by Peter Selinger 2001-2017
</metadata>
<g transform="translate(0.000000,100.000000) scale(0.100000,-0.100000)"
fill="#000000" stroke="none">
<path d="M401 698 l-34 -9 5 -112 c4 -87 10 -121 26 -152 26 -50 72 -113 72
-98 0 7 -5 15 -10 18 -6 4 -9 14 -8 23 2 10 -3 16 -11 14 -8 -2 -11 3 -8 11 3
8 1 20 -4 28 -7 12 -9 12 -10 -1 -2 -35 -28 49 -29 92 l0 47 35 -2 c19 -1 35
-6 35 -12 0 -30 -15 -56 -35 -61 -17 -4 -21 -11 -17 -30 2 -14 7 -23 9 -20 3
2 18 0 35 -6 26 -9 32 -8 40 6 9 16 11 16 23 -1 13 -17 16 -17 45 -1 37 21 38
14 5 -35 -14 -20 -23 -37 -21 -37 8 0 53 72 60 96 5 17 2 23 -19 26 -19 4 -23
2 -15 -7 7 -9 6 -16 -5 -25 -20 -16 -49 -5 -41 16 5 14 4 15 -9 4 -18 -15 -17
-17 -20 47 -1 29 -10 63 -19 77 -9 15 -13 26 -9 26 4 0 -1 6 -12 13 -14 11
-17 22 -12 45 7 35 7 35 -42 20z"/>
</g>
</svg>
